<?xml version="1.0"?>
<svg version="1.1" xmlns="http://www.w3.org/2000/svg" width="400" height="100" style="border: dashed 2px #aaa"><path fill="#2092e3" d="M33.172,55.516c0,3.36-1.148,5.88-3.052,7.504c-1.736,1.456-4.172,2.1-6.944,2.1l-5.348,0c-0.56,0-0.812-0.14-0.812-0.784l0-17.752c0-0.588,0.168-0.84,0.868-0.84l4.032,0c3.22,0,5.404,0.364,7.252,1.428c2.52,1.456,4.004,4.2,4.004,8.344z M29.308,55.488c0-2.548-0.756-4.48-2.184-5.544c-1.148-0.84-2.632-1.148-4.424-1.148l-2.044,0l0,13.3l2.156,0c1.932,0,3.556-0.308,4.732-1.484c1.12-1.12,1.764-2.8,1.764-5.124z M50.994,64.588c0,0.336-0.224,0.532-0.56,0.532l-1.344,0c-1.456,0-2.1-0.7-2.296-1.652l-0.056,0c-0.7,1.036-2.52,1.988-4.06,1.988c-3.948,0-5.74-3.248-5.74-6.888c0-4.844,2.912-7.392,6.048-7.392c1.484,0,2.884,0.672,3.584,1.624l0.056-0.756c0.028-0.308,0.252-0.504,0.588-0.504l1.96,0c0.364,0,0.588,0.196,0.588,0.616l0,9.716c0,0.392,0.056,0.672,0.168,0.812c0.084,0.084,0.196,0.112,0.336,0.112l0.224,0c0.336,0,0.504,0.112,0.504,0.476l0,1.316z M46.374,60.78l0-5.404c-0.56-0.812-1.708-1.428-2.772-1.428c-1.708,0-3.164,1.456-3.164,4.396c0,2.352,0.896,4.34,2.968,4.34c1.372,0,2.548-1.036,2.968-1.904z M66.576,51.932c0,0.084-0.028,0.168-0.056,0.28l-4.9,12.376c-0.168,0.42-0.392,0.532-0.812,0.532l-1.456,0c-0.42,0-0.7-0.112-0.84-0.504l-4.816-12.488c-0.028-0.084-0.056-0.168-0.056-0.252c0-0.224,0.14-0.336,0.504-0.336l2.464,0c0.476,0,0.7,0.196,0.812,0.56l2.128,6.524c0.28,0.84,0.532,1.764,0.7,2.38l0.028,0c0.14-0.532,0.42-1.512,0.672-2.296l2.184-6.58c0.14-0.476,0.364-0.588,0.868-0.588l2.016,0c0.364,0,0.56,0.14,0.56,0.392z M82.578,51.932c0,0.084-0.028,0.168-0.056,0.28l-5.516,14.504c-1.26,3.332-2.828,4.508-6.188,4.508c-0.532,0-1.008-0.028-1.484-0.14c-0.308-0.056-0.42-0.224-0.42-0.476c0-0.084,0.028-0.14,0.028-0.252l0.196-1.456c0.056-0.364,0.196-0.504,0.504-0.504l0.168,0c0.336,0.028,0.672,0.084,0.952,0.084c1.736,0,2.464-0.616,3.024-1.932l0.532-1.26l-5.096-13.132c-0.028-0.084-0.056-0.14-0.056-0.224c0-0.224,0.168-0.392,0.42-0.392l2.688,0c0.392,0,0.588,0.196,0.7,0.476l3.108,9.268l2.94-9.1c0.14-0.448,0.364-0.644,0.84-0.644l2.268,0c0.28,0,0.448,0.168,0.448,0.392z"/><path fill="#ed0e42" d="M99.268,58.68c0,2.548-0.532,4.48-1.96,5.6c-0.924,0.728-2.268,1.12-4.088,1.12c-0.504,0-1.4-0.084-2.016-0.196c-0.336-0.056-0.448-0.224-0.448-0.448c0-0.084,0-0.168,0.028-0.28l0.28-1.568c0.056-0.252,0.14-0.448,0.476-0.448c0.056,0,0.112,0.028,0.196,0.028c0.504,0.084,1.064,0.168,1.484,0.168c0.728,0,1.484-0.252,1.876-0.756c0.392-0.532,0.588-1.4,0.588-2.604l0-11.2l-3.164,0c-0.448,0-0.588-0.28-0.588-0.616l0-1.148c0-0.392,0.196-0.588,0.588-0.588l6.076,0c0.42,0,0.672,0.252,0.672,0.644l0,12.292z M117.454,58.316c0,4.032-2.464,7.14-6.832,7.14c-4.564,0-6.664-3.08-6.664-7.168c0-4.032,2.464-7.112,6.832-7.112c4.564,0,6.664,3.024,6.664,7.14z M113.954,58.316c0-2.296-0.728-4.48-3.192-4.48c-2.492,0-3.304,2.156-3.304,4.396c0,2.296,0.7,4.564,3.192,4.564c2.464,0,3.304-2.184,3.304-4.48z M134.016,64.392c0,0.476-0.168,0.728-0.672,0.728l-2.016,0c-0.504,0-0.672-0.252-0.672-0.728l0-7.616c0-1.54-0.42-2.632-2.128-2.632c-1.092,0-2.436,0.588-3.304,1.344l0,8.932c0,0.476-0.196,0.7-0.672,0.7l-2.044,0c-0.42,0-0.672-0.224-0.672-0.672l0-12.208c0-0.448,0.196-0.7,0.7-0.7l1.82,0c0.392,0,0.644,0.112,0.672,0.532l0.028,0.728c1.288-1.036,2.912-1.624,4.536-1.624c3.136,0,4.424,1.96,4.424,5.012l0,8.204z M151.082,58.288c0,0.672-0.224,0.812-0.924,0.812l-8.204,0c0.224,2.156,1.792,3.64,4.004,3.64c1.176,0,2.408-0.28,3.444-0.672c0.112-0.028,0.196-0.084,0.308-0.084c0.196,0,0.336,0.112,0.392,0.336l0.392,1.428c0.028,0.14,0.056,0.252,0.056,0.336c0,0.196-0.112,0.336-0.448,0.476c-1.372,0.616-3.248,0.896-4.704,0.896c-4.396,0-7-2.8-7-7.168c0-4.2,2.772-7.112,6.944-7.112c1.708,0,3.108,0.644,4.088,1.68c1.288,1.344,1.652,3.108,1.652,5.012l0,0.42z M147.75,56.888l0-0.308c-0.056-1.456-0.896-2.8-2.604-2.8c-1.82,0-2.912,1.456-3.136,3.108l5.74,0z M164.34,61.116c0,2.94-2.548,4.34-5.404,4.34c-1.456,0-3.052-0.42-4.312-0.98c-0.252-0.112-0.336-0.28-0.336-0.448c0-0.084,0.028-0.168,0.056-0.252l0.448-1.428c0.084-0.28,0.224-0.392,0.392-0.392c0.084,0,0.168,0,0.308,0.056c1.232,0.504,2.548,0.868,3.528,0.868c1.232,0,2.072-0.56,2.072-1.484c0-0.784-0.532-1.204-1.68-1.652l-2.212-0.84c-1.596-0.588-2.884-1.82-2.884-3.724c0-2.744,2.576-4.004,5.068-4.004c1.344,0,2.66,0.224,4.06,0.84c0.224,0.112,0.336,0.224,0.336,0.392c0,0.084-0.028,0.168-0.056,0.28l-0.476,1.512c-0.056,0.196-0.196,0.308-0.392,0.308c-0.084,0-0.196-0.028-0.28-0.056c-0.924-0.364-2.128-0.672-3.024-0.672c-1.176,0-1.764,0.644-1.764,1.288c0,0.616,0.308,1.008,1.372,1.428l2.52,1.036c1.484,0.616,2.66,1.764,2.66,3.584z"/></svg>
